<svg xmlns="http://www.w3.org/2000/svg" viewBox="0 0 24.31 16.87"><defs><style>.cls-1{isolation:isolate;}.cls-2{mix-blend-mode:multiply;}.cls-3{fill:#fff;opacity:0;}.cls-4{fill:#fefefe;opacity:0.02;}.cls-5{fill:#fcfcfc;opacity:0.03;}.cls-6{fill:#fbfbfb;opacity:0.05;}.cls-7{fill:#fafafa;opacity:0.07;}.cls-8{fill:#f9f9f9;opacity:0.08;}.cls-9{fill:#f7f7f7;opacity:0.1;}.cls-10{fill:#f6f6f6;opacity:0.11;}.cls-11{fill:#f5f5f5;opacity:0.13;}.cls-12{fill:#f3f3f3;opacity:0.15;}.cls-13{fill:#f2f2f2;opacity:0.16;}.cls-14{fill:#f1f1f1;opacity:0.18;}.cls-15{fill:#f0efef;opacity:0.2;}.cls-16{fill:#eee;opacity:0.21;}.cls-17{fill:#ededed;opacity:0.23;}.cls-18{fill:#ececec;opacity:0.25;}.cls-19{fill:#eaeaea;opacity:0.26;}.cls-20{fill:#e9e9e9;opacity:0.28;}.cls-21{fill:#e8e8e8;opacity:0.3;}.cls-22{fill:#e6e6e6;opacity:0.31;}.cls-23{fill:#e5e5e5;opacity:0.33;}.cls-24{fill:#e4e4e4;opacity:0.34;}.cls-25{fill:#e3e3e2;opacity:0.36;}.cls-26{fill:#e1e1e1;opacity:0.38;}.cls-27{fill:#e0e0e0;opacity:0.39;}.cls-28{fill:#dfdfdf;opacity:0.41;}.cls-29{fill:#ddd;opacity:0.43;}.cls-30{fill:#dcdcdc;opacity:0.44;}.cls-31{fill:#dbdbdb;opacity:0.46;}.cls-32{fill:#dadad9;opacity:0.48;}.cls-33{fill:#d8d8d8;opacity:0.49;}.cls-34{fill:#d7d7d7;opacity:0.51;}.cls-35{fill:#d6d6d5;opacity:0.52;}.cls-36{fill:#d4d4d4;opacity:0.54;}.cls-37{fill:#d3d3d3;opacity:0.56;}.cls-38{fill:#d2d2d2;opacity:0.57;}.cls-39{fill:#d1d0d0;opacity:0.59;}.cls-40{fill:#cfcfcf;opacity:0.61;}.cls-41{fill:#cecece;opacity:0.62;}.cls-42{fill:#cdcdcc;opacity:0.64;}.cls-43{fill:#cbcbcb;opacity:0.66;}.cls-44{fill:#cacaca;opacity:0.67;}.cls-45{fill:#c9c9c8;opacity:0.69;}.cls-46{fill:#c8c7c7;opacity:0.7;}.cls-47{fill:#c6c6c6;opacity:0.72;}.cls-48{fill:#c5c5c5;opacity:0.74;}.cls-49{fill:#c4c4c3;opacity:0.75;}.cls-50{fill:#c2c2c2;opacity:0.77;}.cls-51{fill:#c1c1c1;opacity:0.79;}.cls-52{fill:#c0c0bf;opacity:0.8;}.cls-53{fill:#bfbebe;opacity:0.82;}.cls-54{fill:#bdbdbd;opacity:0.84;}.cls-55{fill:#bcbcbc;opacity:0.85;}.cls-56{fill:#bbbbba;opacity:0.87;}.cls-57{fill:#b9b9b9;opacity:0.89;}.cls-58{fill:#b8b8b8;opacity:0.9;}.cls-59{fill:#b7b7b6;opacity:0.92;}.cls-60{fill:#b5b5b5;opacity:0.93;}.cls-61{fill:#b4b4b4;opacity:0.95;}.cls-62{fill:#b3b3b2;opacity:0.97;}.cls-63{fill:#b2b1b1;opacity:0.98;}.cls-64{fill:#969696;}.cls-65{fill:#b0b0b0;}.cls-66{fill:#f0f1f1;}.cls-67{fill:#fbe400;}</style></defs><g class="cls-1"><g id="Layer_2" data-name="Layer 2"><g id="Layer_1-2" data-name="Layer 1"><g class="cls-2"><ellipse class="cls-3" cx="9.6" cy="15.49" rx="9.6" ry="1.37"/><ellipse class="cls-4" cx="9.74" cy="15.49" rx="9.45" ry="1.35"/><ellipse class="cls-5" cx="9.87" cy="15.49" rx="9.29" ry="1.33"/><ellipse class="cls-6" cx="10.01" cy="15.49" rx="9.14" ry="1.31"/><ellipse class="cls-7" cx="10.15" cy="15.49" rx="8.98" ry="1.29"/><ellipse class="cls-8" cx="10.28" cy="15.49" rx="8.83" ry="1.26"/><ellipse class="cls-9" cx="10.42" cy="15.49" rx="8.68" ry="1.24"/><ellipse class="cls-10" cx="10.56" cy="15.49" rx="8.52" ry="1.22"/><ellipse class="cls-11" cx="10.7" cy="15.49" rx="8.37" ry="1.2"/><ellipse class="cls-12" cx="10.83" cy="15.49" rx="8.21" ry="1.18"/><ellipse class="cls-13" cx="10.97" cy="15.49" rx="8.06" ry="1.15"/><ellipse class="cls-14" cx="11.11" cy="15.49" rx="7.91" ry="1.13"/><ellipse class="cls-15" cx="11.24" cy="15.49" rx="7.75" ry="1.11"/><ellipse class="cls-16" cx="11.38" cy="15.49" rx="7.6" ry="1.09"/><ellipse class="cls-17" cx="11.52" cy="15.49" rx="7.45" ry="1.07"/><ellipse class="cls-18" cx="11.65" cy="15.49" rx="7.29" ry="1.04"/><ellipse class="cls-19" cx="11.79" cy="15.49" rx="7.14" ry="1.02"/><ellipse class="cls-20" cx="11.93" cy="15.49" rx="6.98" ry="1"/><ellipse class="cls-21" cx="12.06" cy="15.49" rx="6.83" ry="0.98"/><ellipse class="cls-22" cx="12.2" cy="15.49" rx="6.68" ry="0.96"/><ellipse class="cls-23" cx="12.34" cy="15.49" rx="6.52" ry="0.93"/><ellipse class="cls-24" cx="12.48" cy="15.49" rx="6.37" ry="0.91"/><ellipse class="cls-25" cx="12.61" cy="15.49" rx="6.21" ry="0.89"/><ellipse class="cls-26" cx="12.75" cy="15.49" rx="6.06" ry="0.87"/><ellipse class="cls-27" cx="12.89" cy="15.49" rx="5.91" ry="0.85"/><ellipse class="cls-28" cx="13.02" cy="15.49" rx="5.75" ry="0.82"/><ellipse class="cls-29" cx="13.16" cy="15.49" rx="5.6" ry="0.8"/><ellipse class="cls-30" cx="13.3" cy="15.49" rx="5.44" ry="0.78"/><ellipse class="cls-31" cx="13.43" cy="15.49" rx="5.29" ry="0.76"/><ellipse class="cls-32" cx="13.57" cy="15.49" rx="5.14" ry="0.74"/><ellipse class="cls-33" cx="13.71" cy="15.49" rx="4.98" ry="0.71"/><ellipse class="cls-34" cx="13.84" cy="15.49" rx="4.83" ry="0.69"/><ellipse class="cls-35" cx="13.98" cy="15.49" rx="4.67" ry="0.67"/><ellipse class="cls-36" cx="14.12" cy="15.49" rx="4.52" ry="0.65"/><ellipse class="cls-37" cx="14.26" cy="15.49" rx="4.37" ry="0.63"/><ellipse class="cls-38" cx="14.39" cy="15.49" rx="4.21" ry="0.6"/><ellipse class="cls-39" cx="14.53" cy="15.49" rx="4.06" ry="0.58"/><ellipse class="cls-40" cx="14.67" cy="15.49" rx="3.9" ry="0.56"/><ellipse class="cls-41" cx="14.8" cy="15.49" rx="3.75" ry="0.54"/><ellipse class="cls-42" cx="14.94" cy="15.49" rx="3.6" ry="0.52"/><ellipse class="cls-43" cx="15.08" cy="15.49" rx="3.44" ry="0.49"/><ellipse class="cls-44" cx="15.21" cy="15.49" rx="3.29" ry="0.47"/><ellipse class="cls-45" cx="15.35" cy="15.49" rx="3.13" ry="0.45"/><ellipse class="cls-46" cx="15.49" cy="15.49" rx="2.98" ry="0.43"/><ellipse class="cls-47" cx="15.62" cy="15.49" rx="2.83" ry="0.41"/><ellipse class="cls-48" cx="15.76" cy="15.49" rx="2.67" ry="0.38"/><ellipse class="cls-49" cx="15.9" cy="15.49" rx="2.52" ry="0.36"/><ellipse class="cls-50" cx="16.04" cy="15.49" rx="2.37" ry="0.34"/><ellipse class="cls-51" cx="16.17" cy="15.49" rx="2.21" ry="0.32"/><ellipse class="cls-52" cx="16.31" cy="15.49" rx="2.06" ry="0.3"/><ellipse class="cls-53" cx="16.45" cy="15.49" rx="1.9" ry="0.27"/><ellipse class="cls-54" cx="16.58" cy="15.49" rx="1.75" ry="0.25"/><path class="cls-55" d="M15.12,15.49c0,.13.72.23,1.6.23s1.6-.1,1.6-.23-.72-.23-1.6-.23S15.12,15.37,15.12,15.49Z"/><path class="cls-56" d="M15.42,15.49c0,.12.64.21,1.44.21s1.44-.09,1.44-.21-.65-.2-1.44-.2S15.42,15.38,15.42,15.49Z"/><path class="cls-57" d="M15.71,15.49c0,.11.57.19,1.28.19s1.29-.08,1.29-.19-.57-.18-1.29-.18S15.71,15.39,15.71,15.49Z"/><path class="cls-58" d="M16,15.49c0,.09.5.17,1.13.17s1.13-.08,1.13-.17-.5-.16-1.13-.16S16,15.4,16,15.49Z"/><path class="cls-59" d="M16.29,15.49c0,.08.44.15,1,.15s1-.07,1-.15a1.93,1.93,0,0,0-1-.14A1.93,1.93,0,0,0,16.29,15.49Z"/><path class="cls-60" d="M16.58,15.49c0,.07.37.12.82.12s.83,0,.83-.12-.37-.12-.83-.12S16.58,15.43,16.58,15.49Z"/><path class="cls-61" d="M16.87,15.49c0,.06.3.1.67.1s.67,0,.67-.1-.3-.09-.67-.09S16.87,15.44,16.87,15.49Z"/><path class="cls-62" d="M17.16,15.49s.23.08.52.08.52,0,.52-.08-.24-.07-.52-.07S17.16,15.45,17.16,15.49Z"/><path class="cls-63" d="M17.45,15.49s.16.06.37.06.36,0,.36-.06-.16-.05-.36-.05S17.45,15.46,17.45,15.49Z"/><path class="cls-64" d="M17.74,15.49s.1,0,.21,0,.21,0,.21,0a.47.47,0,0,0-.21,0A.51.51,0,0,0,17.74,15.49Z"/></g><polygon class="cls-65" points="12.37 15.92 5.35 8.7 11.16 0.44 18.18 7.66 12.37 15.92"/><polygon class="cls-66" points="18.18 7.66 11.16 0.44 17.29 0 24.31 7.22 18.18 7.66"/><polygon class="cls-67" points="24.31 7.22 18.5 15.48 12.37 15.92 18.18 7.66 24.31 7.22"/></g></g></g></svg>